<svg version="1.1" id="April-SVG" xmlns="http://www.w3.org/2000/svg" xmlns:xlink="http://www.w3.org/1999/xlink" x="0px"
     y="0px" viewBox="0 0 300 300" enable-background="new 0 0 300 300" xml:space="preserve">
<g id="April">
    <g id="Body">
        <g>
            <path fill="#FFEBD7" d="M100.7,165c0,0,6.8,14.4,40.8,14.4s41.6-10,41.6-10l16.8-49.2l-60-52.4l-55.2,36.8L100.7,165z"/>
            <path fill="none" d="M90.2,163.2c0,0,8.5,18,51,18s52-12.5,52-12.5l21-61.5l-75-65.5l-69,46L90.2,163.2z"/>
            <path fill="none" stroke="#000000" stroke-width="4" stroke-linecap="round" stroke-linejoin="round" stroke-miterlimit="10" d="
                M126.2,14.3"/>
            <path fill="none" stroke="#000000" stroke-width="4" stroke-linecap="round" stroke-linejoin="round" stroke-miterlimit="10" d="
                M140.1,12.4"/>
            <path display="none" fill="#FFEBD7" d="M210.8,276.8c-2.9-41.1-11.7-83.1-40-86c-8,2.2-13.9,2.5-17.7,0.5
                c-3.8-2-5.6-6.4-5.3-13.5l-13.5,1.5c-0.3,4-0.9,7.9-2.8,10.5c-2,2.6-5.4,4-11.7,3c-24.7,0.8-34.6,26.5-28,80L210.8,276.8z"/>
            <path fill="#998675" d="M210.8,274.8c-2.9-41.1-11.7-83.1-40-86c-22.2,0-44.2,2-51,2c-24.7,0.8-34.6,26.5-28,80L210.8,274.8z"/>
            <path display="none" fill="#FFD0A0" d="M78.8,257.8c0,7,12,10.1,12,10.1l-20,8.1h20c0,0,16-18.1,6-26.1S78.8,250.8,78.8,257.8z"
                />
            <path display="none" fill="#FFD0A0" d="M238,199.8c0,7-15.6,9.3-15.6,9.3l-14.3,68.7l-10.3,3.3c0,0,12.3-81.3,22.3-89.3
                S238,192.8,238,199.8z"/>
            <path fill="#66473A" d="M140.6,33.2C61.5,33.7,52.3,162,57.9,169.7c9.9,13.7,47.1,32,53.9,29.7c-11.3-20-19.4-58.4-13.9-79.9
                c19.6-14.6,25.7-31.2,23.5-37.3c2.2,0.4,3.4,6,2.1,24.5c22.7-0.3,29.9-10.7,29.9-25.6c0.3,16.2,3.7,26.4,11.7,27.7
                c9.8,2.9,14.4,3.8,18.1,4.3c2.3,42.8-0.9,72.6-4.3,85.3c29.5,2.9,46.3-18.2,49.1-32C232.1,157.3,214.2,32.7,140.6,33.2z"/>
            <g display="none">
                <g display="inline">
                    <path fill="#FFD0A0" d="M203.8,262.8h-10c-1.6,0-3-1.4-3-3v-14c0-1.6,1.4-3,3-3h10c1.6,0,3,1.4,3,3v14
                        C206.8,261.4,205.4,262.8,203.8,262.8z"/>
                    <path fill="#FFD0A0" d="M217.8,262.8h-10c-1.6,0-3-1.4-3-3v-10c0-1.6,1.4-3,3-3h10c1.6,0,3,1.4,3,3v10
                        C220.8,261.4,219.4,262.8,217.8,262.8z"/>
                    <path fill="#FFD0A0" d="M187.8,262.8h-10c-1.6,0-3-1.4-3-3v-10c0-1.6,1.4-3,3-3h10c1.6,0,3,1.4,3,3v10
                        C190.8,261.4,189.4,262.8,187.8,262.8z"/>
                </g>
                <g display="inline">
                    <path fill="#FFD0A0" d="M103.8,262.8h-10c-1.7,0-3-1.4-3-3v-14c0-1.6,1.3-3,3-3h10c1.7,0,3,1.4,3,3v14
                        C106.8,261.4,105.4,262.8,103.8,262.8z"/>
                    <path fill="#FFD0A0" d="M119.8,262.8h-10c-1.7,0-3-1.4-3-3v-10c0-1.6,1.3-3,3-3h10c1.7,0,3,1.4,3,3v10
                        C122.8,261.4,121.4,262.8,119.8,262.8z"/>
                    <path fill="#FFD0A0" d="M89.8,262.8h-10c-1.7,0-3-1.4-3-3v-10c0-1.6,1.3-3,3-3h10c1.7,0,3,1.4,3,3v10
                        C92.8,261.4,91.4,262.8,89.8,262.8z"/>
                </g>
            </g>
        </g>
        <ellipse fill="#FFD0A0" cx="208.2" cy="259.8" rx="16.8" ry="16.7"/>
    </g>
    <g id="LeftHand">
        <polygon fill="#A54C4C" points="85.6,269.6 97.2,269 85.2,201 75.6,201.7         "/>
        <ellipse fill="#FFD0A0" cx="92.8" cy="257.8" rx="15.7" ry="15.3"/>
    </g>
    <path id="Book_1_" fill="#66473A" d="M244,281H56c-1.1,0-2-0.9-2-2v-13.6c0-1.1,0.9-2,2-2h188c1.1,0,2,0.9,2,2V279
        C246,280.1,245.1,281,244,281z"/>
</g>
</svg>