<?xml version="1.0" encoding="utf-8"?>
<!-- Generator: Adobe Illustrator 18.1.1, SVG Export Plug-In . SVG Version: 6.00 Build 0)  -->
<svg version="1.1" id="April2-SVG" xmlns="http://www.w3.org/2000/svg" xmlns:xlink="http://www.w3.org/1999/xlink" x="0px" y="0px"
	 viewBox="0 0 300 300" enable-background="new 0 0 300 300" xml:space="preserve">
<g id="April2">
	<g id="Body">
		<path fill="#998675" d="M211.8,269.2c-2.9-41.1-10.8-81-42-84c-13.2-1.8-43.1-1.2-49,0c-24.2,5-34.6,26.5-28,80L211.8,269.2z"/>
		<g>
			<path fill="#FFE4C5" d="M142.3,173.8c18.3,0,47.8-2.1,59.9-16.3c16-19,11.7-53.4,13.1-73.7c2.5-35.5-75-49.5-75-49.5
				s-69.5,9-69,46c0.3,20.1,0.6,53.9,15,73.3C98.4,169.9,122.8,173.8,142.3,173.8z"/>
			<path fill="#66473A" d="M72.8,111.6c0,0-4-33.8-1-47.3s28-26.2,53.5-37l-10.8,14c10.4-15.8,26.2-11.3,39.1-23l-4.9,16
				c3.9-8.7,13.7-1.1,26-5l-5,8c0,0,36.5,7.5,42,19s2.3,57.3,2.3,57.3l-11.3-33.3c-43.4-26.1-96.1-8.1-116.5-4
				C86.3,76.2,80.5,97.2,72.8,111.6z"/>
		</g>
	</g>
	<path id="Keyboard" fill="#66473A" d="M244,280H56c-1.1,0-2-0.9-2-2v-13.6c0-1.1,0.9-2,2-2h188c1.1,0,2,0.9,2,2V278
		C246,279.1,245.1,280,244,280z"/>
	<g id="RightHand">
		<path id="Finger6" fill="#FFD0A0" d="M197.8,263.8L197.8,263.8c-4.4,0-8-3.6-8-8v-4c0-4.4,3.6-8,8-8h0c4.4,0,8,3.6,8,8v4
			C205.8,260.1,202.2,263.8,197.8,263.8z"/>
		<path id="Finger5" fill="#FFD0A0" d="M213.3,263.8L213.3,263.8c-4.4,0-8-3.6-8-8v0c0-4.4,3.6-8,8-8h0c4.4,0,8,3.6,8,8v0
			C221.3,260.1,217.7,263.8,213.3,263.8z"/>
		<path id="Finger4" fill="#FFD0A0" d="M181.8,263.8L181.8,263.8c-4.4,0-8-3.6-8-8v0c0-4.4,3.6-8,8-8h0c4.4,0,8,3.6,8,8v0
			C189.8,260.1,186.2,263.8,181.8,263.8z"/>
	</g>
	<g id="LeftHand">
		<path id="Finger3" fill="#FFD0A0" d="M103.3,263.8L103.3,263.8c-4.4,0-8-3.6-8-8v-4c0-4.4,3.6-8,8-8h0c4.4,0,8,3.6,8,8v4
			C111.3,260.1,107.7,263.8,103.3,263.8z"/>
		<path id="Finger2" fill="#FFD0A0" d="M119.3,263.8L119.3,263.8c-4.4,0-8-3.6-8-8v0c0-4.4,3.6-8,8-8h0c4.4,0,8,3.6,8,8v0
			C127.3,260.1,123.7,263.8,119.3,263.8z"/>
		<path id="Finger1" fill="#FFD0A0" d="M89.3,263.8L89.3,263.8c-4.4,0-8-3.6-8-8v0c0-4.4,3.6-8,8-8h0c4.4,0,8,3.6,8,8v0
			C97.3,260.1,93.7,263.8,89.3,263.8z"/>
	</g>
</g>
</svg>
